<svg xmlns="http://www.w3.org/2000/svg" width="526.5" height="84.6" viewBox="0 0 526.5 84.6"><style type="text/css">.st0{fill:#FF4E00;} .st1{fill:#669933;}</style><path class="st0" d="M498.7 17c-.6 4.5-4.5 8.5-7.8 9.1-6-3.2-11.7-9.1-12.4-10.4-.7 1.3-6.4 7.2-12.5 10.4-3.3-.6-7.1-4.7-7.7-9.1 8-4 17-12.3 20.2-17 3.2 4.7 12.1 13 20.2 17"/><path class="st1" d="M90.7 46.1c2.5 0 4.9-.4 7.4-.6 1.4 1.8 1.2 9-.5 11.2-1.9-.3-5.1-.7-7.6-.7 0 2.3 0 4.6.2 7 .4 5.1 2.4 11.9 9.1 12.3.1 3.9-3.5 8.6-8.4 10.3-4.3.3-9.8-.8-12.8-3.1-7.2-5.5-6.2-16.8-5.8-26.3-2 .1-4.9.2-6.9.5-1.6-2.2-1.4-9.3.1-11 1.8.1 5.3.2 7.2.3.2 0 .7-7.8.8-8.4 1.6-.6 5.2-1.3 9.9-1.2 3.2 0 6.6.7 8.1 1.5-.4 2.4-.8 5.5-.8 8.2M115.6 84.7c-3.3.1-8-.4-10.3-2 1.1-6.1 1.4-13 .9-19.9-.4-5.6-1.2-11.3-2.6-16.6 2.4-2.4 9.2-4.2 13.2-4 1 .6 2.7 2.4 3.3 3.4 1.6-2.5 4.2-4 7.9-4.2 3.8-.1 6.7.9 9.2 2.3.3 3.3-1.9 9.7-6.5 12.5-1.9-1.4-5.1-1-6.5.6.6 3.3 1.2 10.7.7 25.7-2.3 1.2-4.6 2.1-9.3 2.2M178.5 47.4c4.2 4.5 5.5 10.4 5.5 15.9-.1 5.5-1.3 11.4-5.5 15.9-3.5 3.7-8.6 5.6-16.9 5.6-8.2 0-13.4-1.9-16.9-5.6-4.3-4.5-5.5-10.4-5.5-15.9.1-5.5 1.2-11.4 5.5-15.9 3.5-3.7 8.6-5.6 16.9-5.6 8.3 0 13.4 2 16.9 5.6m-12.3 16.2c.1-7.9-.7-13.8-4.5-13.8-3.8.1-4.7 6-4.5 13.8.1 8.6 1.2 13.3 4.5 13.2 3.3.1 4.4-4.6 4.5-13.2M228 68.3c-2.4 1.1-5.2 1.7-8.1 1.7-3.2.1-6.5-.2-9.3-1.6.2 2.6 2.7 5.6 5.5 6.5 5.6 1.9 10.2.4 14.6-.9 1.4.4 3 1.9 2.9 4.7-4.7 4.5-12.7 6.1-19.1 6.1-13-.1-24.3-7.1-24.2-21.6.1-5.6 1.2-11.5 5.5-15.9 3.7-3.8 9.1-5.6 18-5.6 6.2-.1 12.8 1 17 4.6 2.7 2.3 4.5 5.7 4.5 10.6 0 5.8-3.1 9.5-7.3 11.4m-12.1-8.5c1.1-1.2 1.6-3 1.4-4.9-.2-2.7-1.6-5.3-4.5-5.2-4.7 0-4 9.4-3.6 11.9 2.3.4 5.1-.2 6.7-1.8M247.8 62.1c-2 0-4.9.2-6.9.5-1.6-2.2-1.5-9.3-.1-11.1 1.8.2 5.3.3 7.2.3-.1-7.4-.3-13.1 3.3-17.2 3.5-3.8 9.3-4.1 14.1-4.2 6.8-.1 12.5 1.7 12.8 2 .6 4.1-.8 8.4-3.8 11.2-1-.9-3.2-2-5.5-2.1-1.3 0-2.6.1-3.7 1.2-1.6 1.6-1.5 5.3-1.4 9 3.3.4 6.3-.1 9.6-.4 1.4 1.7 1.4 8.9-.2 11.2-2.2-.4-6.5-.9-8.9-.6-.1 8.6.6 17.1 1.4 21.7-4.3 1-13.9 1.6-19.3-.5.7-5 1.5-12.1 1.4-21M285.9 62.1c-2 0-4.9.2-6.9.5-1.6-2.2-1.5-9.3-.1-11.1 1.8.2 5.3.3 7.2.3-.1-7.4-.3-13.1 3.3-17.2 3.5-3.8 9.3-4.1 14.1-4.2 6.8-.1 12.5 1.7 12.8 2 .6 4.1-.8 8.4-3.8 11.2-1-.9-3.2-2-5.5-2.1-1.3 0-2.6.1-3.7 1.2-1.6 1.6-1.5 5.3-1.4 9 3.3.4 6.3-.1 9.6-.4 1.4 1.7 1.4 8.9-.2 11.2-2.2-.4-6.5-.9-8.9-.6-.1 8.6.6 17.1 1.4 21.7-4.3 1-13.9 1.6-19.3-.5.7-5 1.5-12.1 1.4-21M334.3 77.9c0 4.3-2.9 7.6-8.9 7.6-6.1 0-8.9-3.3-8.9-7.6 0-4.4 2.5-7.9 8.9-7.9s8.9 3.5 8.9 7.9M350.6 84.7c-3.3.1-8-.4-10.3-2 1.1-6.1 1.4-13 .9-19.9-.4-5.6-1.2-11.3-2.6-16.6 2.4-2.4 9.2-4.2 13.2-4 1 .6 2.7 2.4 3.3 3.4 1.6-2.5 4.2-4 7.9-4.2 3.8-.1 6.7.9 9.2 2.3.3 3.3-1.9 9.7-6.5 12.5-1.9-1.4-5.1-1-6.5.6.6 3.3 1.2 10.7.7 25.7-2.3 1.2-4.6 2.1-9.3 2.2M375.5 43.7c1.6-.8 4.2-1.9 7.4-1.9 4.8 0 8.5 1.6 10.1 2.2.7 2.7.6 6.6.6 10.3.1 5.3-.1 10.7.2 15.9.2 3 1.4 5.6 4.8 5.6 1.6 0 3-.3 3.5-.5-.4-9.2-1.5-23.4-.1-31.2 5.7-2.9 12-3.3 17.7-.4-1.4 4.7-1.4 12.3-1.6 19.8-.1 6.9.5 14 1.3 19.4-4.5 1.1-12.9 2-22.1 1.9-7.4-.1-12.3-.6-16.4-3.8-3.4-2.8-4.3-7.8-4.3-14.6.2-8.5.2-16.6-1.1-22.7M54.2 80.3c4.4-2.8 7.4-7.7 7.8-12.6.6-9.4-2.7-15.6-9.8-18.4-3.5-1.4-7.2-2-11.1-2.6-4.2-.6-8.5-1.3-12.8-3-4.4-1.6-6.7-4.2-6.8-7.9 0-3.6 2.2-6.8 5.5-7.7 1.1-.3 2.2-.5 3.3-.5 2.6 0 4.8 1 6.4 2.7.9 1.1 2 2.8 2 5.5 2.3 1.3 5.3 2 8.4 2h.5c4.5 0 8.6-1.4 11.2-3.7-.7-2.6-2.1-5.7-5.9-8.8-6.2-5-16.2-5.6-24.3-5.6-17.5 0-27 5.8-28.1 17.1-.6 6.2 2 12 6.8 15.3 3.5 2.3 8.8 4.1 15.4 5.3l4.2.6c6.5.8 13.9 1.7 13.9 9.2 0 4.2-2.8 7.6-7.3 8.7-1.1.3-2.2.4-3.2.4-3.2 0-5.9-1.2-7.5-3.3-.9-1.2-1.8-3.2-1.3-6-2.6-2.6-6.7-3.2-9.8-3.2h-1c-4.7.1-8 1.3-10.7 3.8 0 3.4.6 6.4 2 8.8 4.9 8.5 19.2 8.5 26.8 8.5h3.3c6.4-.1 15.7-.7 22.1-4.6"/><path d="M442.8 33.7h2.1v1.5c.3-.6.7-1 1.2-1.3s1.1-.5 1.7-.5h.5c.9.1 1.7.6 2.5 1.4s1.1 2 1.1 3.5c0 1.2-.4 2.3-1 3.3-.7 1-1.7 1.4-3 1.5h-.1c-.6 0-1.2-.1-1.7-.4s-.9-.6-1.3-1.1v5.4h-2.1v-13.3zm2.6 6.6c.4.6 1.1 1 1.9 1 .8 0 1.4-.3 1.8-.9s.6-1.3.6-2v-.4c-.1-.7-.3-1.3-.7-1.9-.4-.6-1-.9-1.7-.9h-.2c-.8 0-1.5.3-1.9.9-.4.6-.6 1.3-.6 2.1.2.7.4 1.4.8 2.1zM463 35.5c.4.9.6 1.8.6 2.8v.2h-7.3c.1.6.2 1.2.5 1.7s.8.8 1.5 1c.1 0 .2 0 .3.1h.3c.6 0 1.1-.2 1.6-.5s.9-.8 1.2-1.3l1.7 1c-.5.9-1.1 1.5-1.9 2-.7.5-1.6.7-2.6.7h-.5c-1.4-.1-2.4-.6-3.2-1.5-.8-.9-1.2-2-1.2-3.2v-.9999999999999999c.2-1.2.7-2.2 1.6-2.9.9-.7 1.9-1.1 3-1.1h.7l.7.1c.1 0 .2.1.2.1.1 0 .2 0 .2.1 1.4.2 2.2.8 2.6 1.7zm-2.4.1c-.4-.3-1-.5-1.7-.5s-1.2.2-1.6.5c-.4.3-.7.8-.9 1.5h4.9c-.1-.7-.3-1.2-.7-1.5zM469.6 37.4l-2.1 5.3h-2.1l3.7-9.6 3.5 6.7 3.5-6.7 3.8 9.6h-2.1l-2-5.3-3.2 5.7-3-5.7zM483.2 34.7c1-.9 2.2-1.4 3.5-1.4h.3c.1 0 .2 0 .4.1h.3s.2 0 .3.1c1.1.3 2 .9 2.7 1.8.7.9 1 1.9 1 3v.4c-.2 1.2-.7 2.3-1.7 3-1 .8-2.1 1.2-3.3 1.2-1.3 0-2.5-.5-3.5-1.4s-1.5-2.1-1.5-3.5c0-1.2.5-2.4 1.5-3.3zm1.7 5.9c.5.4 1 .6 1.5.6h.2c.7-.1 1.3-.4 1.8-.9s.8-1.2.8-2.1c0-.8-.3-1.5-.8-2.1-.5-.6-1.2-.9-2-.9h-.3c-.7.1-1.3.4-1.7 1-.4.6-.7 1.2-.7 1.9v.7999999999999999c.4.8.8 1.4 1.2 1.7zM500.9 42.7v-3.8h-4.6v3.8h-2.1v-9.1h2.1v3.6h4.6v-3.6h2.1v9.1h-2.1zM513.3 35.4h-2.9v7.3h-2.1v-7.3h-2.9v-1.8h7.9v1.8zM437.5 53.6c-.3-.2-.6-.3-1-.3h-.8c-.7 0-1.4.2-1.9.7-.6.5-.9 1.2-.9 2.2 0 .8.2 1.4.6 2 .4.6 1 .9 1.8 1h.5c.5 0 .9-.1 1.3-.3.4-.2.8-.5 1.1-.9v2.4c-.2.1-.4.2-.6.2l-.6.2-.8.2h-.7c-1.3 0-2.4-.4-3.4-1.3s-1.4-2.1-1.4-3.6.5-2.6 1.5-3.5c1-.8 2.1-1.3 3.4-1.3h.5c.2 0 .4 0 .5.1.2 0 .5.1.7.2l.7.3v2.3c.1-.2-.2-.4-.5-.6zM455.7 60.7v-5.6l-6.7 6.2v-9.7h2.1v5.4l6.7-6.1v9.7h-2.1zM464.2 55.4l-2.1 5.3h-2.1l3.7-9.6 3.5 6.7 3.5-6.7 3.8 9.6h-2.1l-2-5.3-3.2 5.7-3-5.7zM485.2 53.5c.4.9.6 1.8.6 2.8v.2h-7.3c.1.6.2 1.2.5 1.7s.8.8 1.5 1c.1 0 .2 0 .3.1h.3c.6 0 1.1-.2 1.6-.5.5-.4.9-.8 1.2-1.3l1.7 1c-.5.9-1.1 1.5-1.9 2-.7.5-1.6.7-2.6.7h-.5c-1.4-.1-2.4-.6-3.2-1.5-.8-.9-1.2-2-1.2-3.2v-.9999999999999999c.2-1.2.7-2.2 1.6-2.9.9-.7 1.9-1.1 3-1.1h.7l.7.1c.1 0 .2.1.2.1.1 0 .2 0 .2.1 1.4.2 2.2.8 2.6 1.7zm-2.4.1c-.4-.3-1-.5-1.7-.5s-1.2.2-1.6.5c-.4.3-.7.8-.9 1.5h4.9c-.1-.7-.3-1.2-.7-1.5zM494.9 60.7v-3.8h-4.6v3.8h-2.1v-9.1h2.1v3.6h4.6v-3.6h2.1v9.1h-2.1zM508.2 53.5c.4.9.6 1.8.6 2.8v.2h-7.3c.1.6.2 1.2.5 1.7s.8.8 1.5 1c.1 0 .2 0 .3.1h.3c.6 0 1.1-.2 1.6-.5.5-.4.9-.8 1.2-1.3l1.7 1c-.5.9-1.1 1.5-1.9 2-.7.5-1.6.7-2.6.7h-.5c-1.4-.1-2.4-.6-3.2-1.5-.8-.9-1.2-2-1.2-3.2v-.9999999999999999c.2-1.2.7-2.2 1.6-2.9.9-.7 1.9-1.1 3-1.1h.7l.7.1c.1 0 .2.1.2.1.1 0 .2 0 .2.1 1.5.2 2.3.8 2.6 1.7zm-2.3.1c-.4-.3-1-.5-1.7-.5s-1.2.2-1.6.5c-.4.3-.7.8-.9 1.5h4.9c-.1-.7-.3-1.2-.7-1.5zM514.9 55.4l-2.1 5.3h-2.1l3.7-9.6 3.5 6.7 3.5-6.7 3.8 9.6h-2.1l-2-5.3-3.2 5.7-3-5.7z"/></svg>